<mxfile host="65bd71144e">
    <diagram id="7kKZISeoXC1-X_oNVWxm" name="Page-1">
        <mxGraphModel dx="1467" dy="479" grid="1" gridSize="10" guides="1" tooltips="1" connect="1" arrows="1" fold="1" page="1" pageScale="1" pageWidth="850" pageHeight="1100" math="0" shadow="0">
            <root>
                <mxCell id="0"/>
                <mxCell id="1" parent="0"/>
                <mxCell id="25" value="" style="rounded=1;whiteSpace=wrap;html=1;fontColor=#333333;strokeColor=#333333;fillColor=#FFFFFF;arcSize=6;" vertex="1" parent="1">
                    <mxGeometry x="30" y="390" width="840" height="350" as="geometry"/>
                </mxCell>
                <mxCell id="24" value="" style="rounded=1;whiteSpace=wrap;html=1;fontColor=#333333;strokeColor=#333333;fillColor=#FFFFFF;arcSize=6;" vertex="1" parent="1">
                    <mxGeometry x="30" y="20" width="840" height="350" as="geometry"/>
                </mxCell>
                <mxCell id="2" value="connecting-worlds" style="rounded=1;whiteSpace=wrap;html=1;fillColor=#66CC00;" vertex="1" parent="1">
                    <mxGeometry x="240" y="82" width="120" height="60" as="geometry"/>
                </mxCell>
                <mxCell id="3" value="quarkus-world&lt;br&gt;8080" style="rounded=1;whiteSpace=wrap;html=1;fillColor=#6666FF;" vertex="1" parent="1">
                    <mxGeometry x="100" y="272" width="120" height="60" as="geometry"/>
                </mxCell>
                <mxCell id="4" value="helidon-world&lt;br&gt;9090" style="rounded=1;whiteSpace=wrap;html=1;fillColor=#FF6666;" vertex="1" parent="1">
                    <mxGeometry x="240" y="272" width="120" height="60" as="geometry"/>
                </mxCell>
                <mxCell id="5" value="roberta-world&lt;br&gt;7070" style="rounded=1;whiteSpace=wrap;html=1;fillColor=#3399FF;" vertex="1" parent="1">
                    <mxGeometry x="380" y="272" width="120" height="60" as="geometry"/>
                </mxCell>
                <mxCell id="7" value="" style="shape=flexArrow;endArrow=classic;html=1;exitX=0.25;exitY=1;exitDx=0;exitDy=0;fillColor=#FF9933;strokeColor=none;entryX=0.5;entryY=0;entryDx=0;entryDy=0;" edge="1" parent="1" source="2" target="3">
                    <mxGeometry width="50" height="50" relative="1" as="geometry">
                        <mxPoint x="240" y="202" as="sourcePoint"/>
                        <mxPoint x="110" y="272" as="targetPoint"/>
                    </mxGeometry>
                </mxCell>
                <mxCell id="8" value="" style="shape=flexArrow;endArrow=classic;html=1;entryX=0.5;entryY=0;entryDx=0;entryDy=0;exitX=0.5;exitY=1;exitDx=0;exitDy=0;fillColor=#FF9933;strokeColor=none;" edge="1" parent="1" source="2" target="4">
                    <mxGeometry width="50" height="50" relative="1" as="geometry">
                        <mxPoint x="390" y="212" as="sourcePoint"/>
                        <mxPoint x="260" y="282" as="targetPoint"/>
                    </mxGeometry>
                </mxCell>
                <mxCell id="9" value="" style="shape=flexArrow;endArrow=classic;html=1;exitX=0.75;exitY=1;exitDx=0;exitDy=0;entryX=0.5;entryY=0;entryDx=0;entryDy=0;fillColor=#FF9933;strokeColor=none;" edge="1" parent="1" source="2" target="5">
                    <mxGeometry width="50" height="50" relative="1" as="geometry">
                        <mxPoint x="280" y="202" as="sourcePoint"/>
                        <mxPoint x="120" y="282" as="targetPoint"/>
                    </mxGeometry>
                </mxCell>
                <mxCell id="10" value="connecting-worlds&lt;br&gt;8080" style="rounded=1;whiteSpace=wrap;html=1;fillColor=#66CC00;" vertex="1" parent="1">
                    <mxGeometry x="200" y="470" width="120" height="60" as="geometry"/>
                </mxCell>
                <mxCell id="11" value="quarkus-world&lt;br&gt;6060" style="rounded=1;whiteSpace=wrap;html=1;fillColor=#6666FF;" vertex="1" parent="1">
                    <mxGeometry x="60" y="660" width="120" height="60" as="geometry"/>
                </mxCell>
                <mxCell id="12" value="helidon-world&lt;br&gt;9090" style="rounded=1;whiteSpace=wrap;html=1;fillColor=#FF6666;" vertex="1" parent="1">
                    <mxGeometry x="200" y="660" width="120" height="60" as="geometry"/>
                </mxCell>
                <mxCell id="13" value="roberta-world&lt;br&gt;7070" style="rounded=1;whiteSpace=wrap;html=1;fillColor=#3399FF;" vertex="1" parent="1">
                    <mxGeometry x="340" y="660" width="120" height="60" as="geometry"/>
                </mxCell>
                <mxCell id="17" value="" style="shape=flexArrow;endArrow=classic;startArrow=classic;html=1;fillColor=#FF9933;exitX=0.5;exitY=0;exitDx=0;exitDy=0;entryX=0.25;entryY=1;entryDx=0;entryDy=0;" edge="1" parent="1" source="11" target="10">
                    <mxGeometry width="100" height="100" relative="1" as="geometry">
                        <mxPoint x="20" y="670" as="sourcePoint"/>
                        <mxPoint x="120" y="570" as="targetPoint"/>
                    </mxGeometry>
                </mxCell>
                <mxCell id="18" value="" style="shape=flexArrow;endArrow=classic;startArrow=classic;html=1;fillColor=#FF9933;exitX=0.5;exitY=0;exitDx=0;exitDy=0;entryX=0.75;entryY=1;entryDx=0;entryDy=0;" edge="1" parent="1" source="13" target="10">
                    <mxGeometry width="100" height="100" relative="1" as="geometry">
                        <mxPoint x="80" y="670" as="sourcePoint"/>
                        <mxPoint x="230" y="540" as="targetPoint"/>
                    </mxGeometry>
                </mxCell>
                <mxCell id="19" value="" style="shape=flexArrow;endArrow=classic;startArrow=classic;html=1;fillColor=#FF9933;exitX=0.5;exitY=0;exitDx=0;exitDy=0;entryX=0.5;entryY=1;entryDx=0;entryDy=0;" edge="1" parent="1" source="12" target="10">
                    <mxGeometry width="100" height="100" relative="1" as="geometry">
                        <mxPoint x="440" y="670" as="sourcePoint"/>
                        <mxPoint x="290" y="540" as="targetPoint"/>
                    </mxGeometry>
                </mxCell>
                <mxCell id="20" value="&lt;div style=&quot;text-align: justify&quot;&gt;&lt;span style=&quot;color: rgb(51 , 51 , 51)&quot;&gt;Connecting-worlds need to setup every new chatbot&lt;/span&gt;&lt;/div&gt;&lt;span style=&quot;color: rgb(51 , 51 , 51) ; text-align: justify&quot;&gt;Connecting-worlds n&lt;/span&gt;&lt;span style=&quot;text-align: justify ; color: rgb(51 , 51 , 51)&quot;&gt;eed to know every chatbot host and port&lt;/span&gt;&lt;span style=&quot;color: rgb(51 , 51 , 51) ; text-align: justify&quot;&gt;&lt;br&gt;&lt;/span&gt;" style="shape=callout;whiteSpace=wrap;html=1;perimeter=calloutPerimeter;fillColor=#FFCCCC;position2=0;align=center;" vertex="1" parent="1">
                    <mxGeometry x="460" y="180" width="350" height="110" as="geometry"/>
                </mxCell>
                <mxCell id="21" value="&lt;div style=&quot;text-align: left&quot;&gt;&lt;span&gt;&lt;font color=&quot;#333333&quot;&gt;Chatbot must have websocket client impl.&lt;/font&gt;&lt;/span&gt;&lt;/div&gt;&lt;div style=&quot;text-align: left&quot;&gt;&lt;span&gt;&lt;font color=&quot;#333333&quot;&gt;Chatbot need to deal with more connection errors&lt;/font&gt;&lt;/span&gt;&lt;/div&gt;" style="shape=callout;whiteSpace=wrap;html=1;perimeter=calloutPerimeter;fillColor=#FFCCCC;position2=0;" vertex="1" parent="1">
                    <mxGeometry x="480" y="570" width="300" height="110" as="geometry"/>
                </mxCell>
                <mxCell id="22" value="&lt;div style=&quot;text-align: justify&quot;&gt;&lt;/div&gt;&lt;span style=&quot;color: rgb(51 , 51 , 51) ; text-align: justify&quot;&gt;Chatbots simply implement HTTP endpoints&lt;br&gt;&lt;/span&gt;" style="shape=callout;whiteSpace=wrap;html=1;perimeter=calloutPerimeter;fillColor=#CCFFCC;position2=0;align=center;" vertex="1" parent="1">
                    <mxGeometry x="470" y="90" width="280" height="80" as="geometry"/>
                </mxCell>
                <mxCell id="23" value="&lt;div style=&quot;text-align: justify&quot;&gt;&lt;font color=&quot;#333333&quot;&gt;Add new chatbots on-the-fly without changing connecting-worlds&lt;/font&gt;&lt;/div&gt;&lt;div style=&quot;text-align: justify&quot;&gt;&lt;font color=&quot;#333333&quot;&gt;Connecting-worlds implements simple websocket server&lt;/font&gt;&lt;/div&gt;&lt;div style=&quot;text-align: justify&quot;&gt;&lt;font color=&quot;#333333&quot;&gt;Chatbots only need connecting-worlds host and port to enter chat&lt;/font&gt;&lt;/div&gt;&lt;span style=&quot;color: rgb(51 , 51 , 51) ; text-align: justify&quot;&gt;&lt;br&gt;&lt;/span&gt;" style="shape=callout;whiteSpace=wrap;html=1;perimeter=calloutPerimeter;fillColor=#CCFFCC;position2=0;" vertex="1" parent="1">
                    <mxGeometry x="380" y="452" width="380" height="118" as="geometry"/>
                </mxCell>
                <mxCell id="26" value="&lt;h2&gt;&lt;b&gt;HTTP approach&lt;/b&gt;&lt;/h2&gt;" style="text;html=1;strokeColor=none;fillColor=none;align=center;verticalAlign=middle;whiteSpace=wrap;rounded=0;fontColor=#333333;" vertex="1" parent="1">
                    <mxGeometry x="40" y="30" width="150" height="40" as="geometry"/>
                </mxCell>
                <mxCell id="27" value="&lt;h2&gt;&lt;b&gt;Websocket approach&lt;/b&gt;&lt;/h2&gt;" style="text;html=1;strokeColor=none;fillColor=none;align=center;verticalAlign=middle;whiteSpace=wrap;rounded=0;fontColor=#333333;" vertex="1" parent="1">
                    <mxGeometry x="50" y="400" width="200" height="30" as="geometry"/>
                </mxCell>
            </root>
        </mxGraphModel>
    </diagram>
</mxfile>